# xmcd
#
# Track frame offsets:
# 150
# 16286
# 34568
# 55057
# 83017
# 110542
# 129007
# 147010
# 163793
# 182255
# 201837
# 220308
# 235592
# 269521
# 285800
#
# Disc length: 4023 seconds
#
# Revision: 1
# Processed by: cddbd v1.5.2PL0 Copyright (c) Steve Scherf et al.
# Submitted via: TinyPlayer 2.8
#
DISCID=bc0fb50f
DTITLE=Various Artist - Classic Rock Magazine #156: Eruption
DYEAR=2011
DGENRE=Rock
TTITLE0=Heaven and Hell - Eating the Cannibals
TTITLE1=Knock Out Kaine - Little Crystal
TTITLE2=Joe Bonamassa - Dust Bowl
TTITLE3=Dickey Betts - Ramblin' Man
TTITLE4=Nils Lofgren Band - Too Many Miles
TTITLE5=Black Label Society - Crazy Horse
TTITLE6=White Bone Rattle - Glass Eye
TTITLE7=Spirit - Mr. Skin
TTITLE8=John-Alex Mason - Free
TTITLE9=NG26 - Bring Back the Day
TTITLE10=Quicksilver Messenger Service - Drivin' Wheel
TTITLE11=Carlo Little All Stars - Country Line Special
TTITLE12=Leslie West - Spoonful
TTITLE13=Tortilla Army - Water
TTITLE14=Load"" - Priceless
EXTD=
EXTT0=
EXTT1=
EXTT2=
EXTT3=
EXTT4=
EXTT5=
EXTT6=
EXTT7=
EXTT8=
EXTT9=
EXTT10=
EXTT11=
EXTT12=
EXTT13=
EXTT14=
PLAYORDER=
